<?xml version="1.0" encoding="UTF-8"?>
<svg xmlns="http://www.w3.org/2000/svg" version="1.1" viewBox="0 0 800 200">
  <defs>
    <style>
      .cls-1 {
        fill: #009245;
      }

      .cls-2 {
        fill: #4d4d4d;
      }

      .cls-3 {
        fill: #0071bc;
      }

      .cls-4 {
        fill: #c1272d;
      }

      .cls-5 {
        fill: #999;
      }
    </style>
  </defs>
  <!-- Generator: Adobe Illustrator 28.7.1, SVG Export Plug-In . SVG Version: 1.2.0 Build 142)  -->
  <g>
    <g id="Layer_1">
      <g>
        <polygon class="cls-2" points="20.32 77.75 20.32 74.25 13.36 69.9 13.36 69.79 20.32 65.44 20.32 61.95 10.18 68.52 10.18 71.18 20.32 77.75"/>
        <path class="cls-1" d="M29.98,75.88c-1.09,0-1.79-.41-1.79-1.24,0-1.11,1.03-1.94,4.85-2.13v2.13c-.92.71-1.9,1.24-3.06,1.24ZM28.76,78.86c1.67,0,3.3-.79,4.61-1.78h.1l.28,1.47h3.15v-7.43c0-3.99-2.21-5.89-5.87-5.89-2.21,0-4.28.73-6.09,1.76l1.38,2.53c1.46-.73,2.71-1.22,3.96-1.22,1.75,0,2.62.71,2.76,1.87-6.14.37-8.55,1.86-8.55,4.77,0,2.19,1.64,3.92,4.28,3.92Z"/>
        <path class="cls-3" d="M103.67,68.57h11.76v-3.02h-8.19l-3.56.15v2.87ZM107.11,78.55h3.85v-13.36c0-1.57.78-2.29,2.44-2.29.99,0,1.89.2,2.72.51l.74-2.84c-1.09-.37-2.45-.7-3.94-.7-4.08,0-5.82,2.35-5.82,5.33v13.34ZM94.45,78.86c1.74,0,3.67-.57,5.16-1.52l-1.28-2.32c-1.15.58-2.17.9-3.35.9-2.53,0-4-1.19-4-3.88s1.25-3.88,3.16-3.88c1.71,0,2.62,1.1,2.62,3.19l.61-.74h-7.26v2.59h9.87c.05-.32.16-1.02.16-1.73,0-3.53-2.11-6.24-6.12-6.24-3.48,0-6.77,2.55-6.77,6.81s3.15,6.82,7.21,6.82ZM73.09,78.55h3.86v-6.76c1.12-2.33,2.78-3.17,4.39-3.17.96,0,1.49.13,2.3.38l.78-3.24c-.75-.34-1.36-.52-2.5-.52-2.08,0-3.99,1.03-5.27,3.16h-.09l-.3-2.84h-3.17v13ZM56.23,78.55h3.86v-8.68c.9-.88,1.6-1.35,2.63-1.35,1.41,0,1.91.77,1.91,2.5v7.53h3.86v-8.03c0-3.28-1.29-5.29-4.21-5.29-1.95,0-3.35.94-4.31,1.94h-.1l.23-2.5v-4.48h-3.86v18.36Z"/>
        <path class="cls-2" d="M142.78,70.95c3.06-1.4,4.58-3.62,4.58-6.47,0-2.64-1.12-4.2-3.08-4.2-1.45,0-2.51,1.05-2.51,2.65,0,1.44.99,2.4,2.39,2.4.65,0,1.44-.35,1.93-.76l-1.56-2.13.17,2.5c0,1.82-1,3.1-2.94,3.99l1.02,2.03ZM135.8,70.95c3.06-1.4,4.58-3.62,4.58-6.47,0-2.64-1.12-4.2-3.08-4.2-1.45,0-2.51,1.05-2.51,2.65,0,1.44.99,2.4,2.39,2.4.65,0,1.44-.35,1.93-.76l-1.56-2.13.17,2.5c0,1.82-1,3.1-2.94,3.99l1.02,2.03ZM119.08,74.31h12.07v-2.72h-12.07v2.72ZM119.08,68.21h12.07v-2.72h-12.07v2.72Z"/>
        <path class="cls-4" d="M591.06,82.74h3.23l8.64-22.81h-3.23l-8.64,22.81ZM583.76,78.86c1.62,0,2.53-.26,3.88-.7l-.85-2.84c-.79.3-1.42.43-2.03.43-1.09,0-2.12-.52-2.12-2.13v-13.43h-7.95v3.02h4.09v10.25c0,3.3,1.7,5.4,4.98,5.4ZM565.41,78.86c4.17,0,6.42-1.84,6.42-4.2,0-2.12-1.12-3.26-5.13-4.16-2.21-.49-3-.66-3-1.39,0-.61.6-1.04,1.8-1.04,1.44,0,2.94.45,4.25,1.24l1.73-2.32c-1.35-.87-3.31-1.78-5.63-1.78-3.71,0-5.98,1.65-5.98,4.07,0,2.01,1.41,3.31,4.94,4.06,2.55.54,3.18.8,3.18,1.53,0,.64-.63,1.12-2.06,1.12-1.86,0-3.65-.55-5.25-1.54l-1.64,2.41c1.64,1.09,4.04,1.99,6.36,1.99ZM543.87,82.74h3.23l8.64-22.81h-3.23l-8.64,22.81ZM535.25,63.51c1.49,0,2.56-.94,2.56-2.36s-1.07-2.4-2.56-2.4-2.56.98-2.56,2.4,1.07,2.36,2.56,2.36ZM533.5,78.55h3.86v-13h-9.1v3.02h5.24v9.98ZM518.23,78.86c4.17,0,6.42-1.84,6.42-4.2,0-2.12-1.12-3.26-5.13-4.16-2.21-.49-3-.66-3-1.39,0-.61.6-1.04,1.8-1.04,1.44,0,2.94.45,4.25,1.24l1.73-2.32c-1.35-.87-3.31-1.78-5.63-1.78-3.71,0-5.98,1.65-5.98,4.07,0,2.01,1.41,3.31,4.94,4.06,2.55.54,3.18.8,3.18,1.53,0,.64-.63,1.12-2.06,1.12-1.86,0-3.65-.55-5.25-1.54l-1.64,2.41c1.64,1.09,4.04,1.99,6.36,1.99ZM502.61,78.86c1.8,0,3.05-1.35,3.05-3.08s-1.25-3.08-3.05-3.08-3.05,1.37-3.05,3.08,1.25,3.08,3.05,3.08ZM488.07,63.51c1.49,0,2.56-.94,2.56-2.36s-1.07-2.4-2.56-2.4-2.56.98-2.56,2.4,1.07,2.36,2.56,2.36ZM484.12,83.69c4.72,0,6.05-2.75,6.05-5.92v-12.22h-9.1v3.02h5.24v9.36c0,1.88-.57,2.73-2.42,2.73-.76,0-1.59-.15-2.65-.61l-1.12,2.76c1.12.52,2.4.88,4,.88ZM473.66,78.86c1.62,0,2.53-.26,3.88-.7l-.85-2.84c-.79.3-1.42.43-2.03.43-1.09,0-2.12-.52-2.12-2.13v-13.43h-7.95v3.02h4.09v10.25c0,3.3,1.7,5.4,4.98,5.4ZM449.39,71.26h12.07v-2.72h-12.07v2.72ZM440.88,63.51c1.49,0,2.56-.94,2.56-2.36s-1.07-2.4-2.56-2.4-2.56.98-2.56,2.4,1.07,2.36,2.56,2.36ZM439.13,78.55h3.86v-13h-9.1v3.02h5.24v9.98ZM417.99,78.55h3.86v-8.68c.9-.88,1.6-1.35,2.63-1.35,1.41,0,1.91.77,1.91,2.5v7.53h3.86v-8.03c0-3.28-1.29-5.29-4.23-5.29-1.94,0-3.37.94-4.49,2.05h-.1l-.28-1.73h-3.14v13ZM406.21,78.86c1.87,0,3.23-.86,4.39-2.18h.1l.28,1.87h3.15v-13h-3.86v8.55c-.89,1.14-1.56,1.48-2.52,1.48-1.44,0-1.9-.77-1.9-2.5v-7.53h-3.86v8.03c0,3.28,1.26,5.29,4.22,5.29ZM392.51,78.86c1.8,0,3.05-1.35,3.05-3.08s-1.25-3.08-3.05-3.08-3.05,1.37-3.05,3.08,1.25,3.08,3.05,3.08ZM371.07,68.57h11.76v-3.02h-8.19l-3.56.15v2.87ZM374.5,78.55h3.85v-13.36c0-1.57.78-2.29,2.44-2.29.99,0,1.89.2,2.72.51l.74-2.84c-1.09-.37-2.45-.7-3.94-.7-4.08,0-5.82,2.35-5.82,5.33v13.34ZM354.1,78.55h3.66v-8.77c.35-.86.68-1.27,1.15-1.27.51,0,.74.38.74,1.19v8.85h3.01v-8.77c.36-.86.7-1.27,1.19-1.27s.7.38.7,1.19v8.85h3.66v-9.12c0-2.6-1.05-4.2-2.91-4.2-1.49,0-2.41.95-2.88,2.13-.31-1.39-1.13-2.13-2.26-2.13-1.51,0-2.33.87-2.81,1.92h-.09l-.28-1.6h-2.9v13ZM339.61,68.57h11.76v-3.02h-8.19l-3.56.15v2.87ZM343.05,78.55h3.85v-13.36c0-1.57.78-2.29,2.44-2.29.99,0,1.89.2,2.72.51l.74-2.84c-1.09-.37-2.45-.7-3.94-.7-4.08,0-5.82,2.35-5.82,5.33v13.34ZM329.59,78.86c1.8,0,3.05-1.35,3.05-3.08s-1.25-3.08-3.05-3.08-3.05,1.37-3.05,3.08,1.25,3.08,3.05,3.08ZM308.23,78.55h4.44l.7-4.23c.21-1.63.32-2.75.44-3.85h.1c.15,1.49.31,2.73.48,3.85l.71,4.23h4.52l2.01-13h-3.58l-.73,6.03c-.14,1.28-.2,2.53-.37,3.85h-.1c-.18-1.32-.4-2.57-.65-3.85l-.84-4.3h-2.79l-.82,4.3c-.27,1.24-.46,2.53-.6,3.85h-.09c-.16-1.32-.27-2.57-.43-3.85l-.8-6.03h-3.74l2.14,13ZM292.5,78.55h4.44l.7-4.23c.21-1.63.32-2.75.44-3.85h.1c.15,1.49.31,2.73.48,3.85l.71,4.23h4.52l2.01-13h-3.58l-.73,6.03c-.14,1.28-.2,2.53-.37,3.85h-.1c-.18-1.32-.4-2.57-.65-3.85l-.84-4.3h-2.79l-.82,4.3c-.27,1.24-.46,2.53-.6,3.85h-.09c-.16-1.32-.27-2.57-.43-3.85l-.8-6.03h-3.74l2.14,13ZM276.77,78.55h4.44l.7-4.23c.21-1.63.32-2.75.44-3.85h.1c.15,1.49.31,2.73.48,3.85l.71,4.23h4.52l2.01-13h-3.58l-.73,6.03c-.14,1.28-.2,2.53-.37,3.85h-.1c-.18-1.32-.4-2.57-.65-3.85l-.84-4.3h-2.79l-.82,4.3c-.27,1.24-.46,2.53-.6,3.85h-.09c-.16-1.32-.27-2.57-.43-3.85l-.8-6.03h-3.74l2.14,13ZM260.75,82.74h3.23l8.64-22.81h-3.23l-8.64,22.81ZM245.02,82.74h3.23l8.64-22.81h-3.23l-8.64,22.81ZM235.22,78.86c1.8,0,3.05-1.35,3.05-3.08s-1.25-3.08-3.05-3.08-3.05,1.37-3.05,3.08,1.25,3.08,3.05,3.08ZM235.22,70.39c1.8,0,3.05-1.35,3.05-3.08s-1.25-3.08-3.05-3.08-3.05,1.37-3.05,3.08,1.25,3.08,3.05,3.08ZM219.38,78.86c4.17,0,6.42-1.84,6.42-4.2,0-2.12-1.12-3.26-5.13-4.16-2.21-.49-3-.66-3-1.39,0-.61.6-1.04,1.8-1.04,1.44,0,2.94.45,4.25,1.24l1.73-2.32c-1.35-.87-3.31-1.78-5.63-1.78-3.71,0-5.98,1.65-5.98,4.07,0,2.01,1.41,3.31,4.94,4.06,2.55.54,3.18.8,3.18,1.53,0,.64-.63,1.12-2.06,1.12-1.86,0-3.65-.55-5.25-1.54l-1.64,2.41c1.64,1.09,4.04,1.99,6.36,1.99ZM203.87,75.71c-.68,0-1.5-.22-2.23-.86v-5.25c.81-.86,1.57-1.21,2.4-1.21,1.64,0,2.4,1.16,2.4,3.49,0,2.69-1.15,3.82-2.57,3.82ZM197.79,83.38h3.86v-3.81l-.18-2.11h.09c.93.9,2.05,1.41,3.2,1.41,2.92,0,5.64-2.56,5.64-7.02,0-4.02-1.97-6.61-5.21-6.61-1.4,0-2.83.68-3.87,1.64h-.1l-.28-1.32h-3.14v17.83ZM190.35,78.86c1.73,0,3.1-.36,4.25-.7l-.7-2.79c-.77.27-1.6.46-2.57.46-1.9,0-2.73-.74-2.73-2.72v-4.54h5.48v-3.02h-5.48v-3.98h-3.19l-.5,3.98-3.45.15v2.87h3.28v4.59c0,3.41,1.47,5.7,5.61,5.7ZM174.62,78.86c1.73,0,3.1-.36,4.25-.7l-.7-2.79c-.77.27-1.6.46-2.57.46-1.9,0-2.73-.74-2.73-2.72v-4.54h5.48v-3.02h-5.48v-3.98h-3.19l-.5,3.98-3.45.15v2.87h3.28v4.59c0,3.41,1.47,5.7,5.61,5.7ZM150.6,78.55h3.86v-8.68c.9-.88,1.6-1.35,2.63-1.35,1.41,0,1.91.77,1.91,2.5v7.53h3.86v-8.03c0-3.28-1.29-5.29-4.22-5.29-1.95,0-3.35.94-4.31,1.94h-.1l.23-2.5v-4.48h-3.86v18.36Z"/>
        <path class="cls-2" d="M623.14,77.75l10.14-6.57v-2.66l-10.14-6.57v3.5l6.96,4.35v.1l-6.96,4.35v3.5ZM614.65,70.95c3.06-1.4,4.58-3.62,4.58-6.47,0-2.64-1.12-4.2-3.08-4.2-1.45,0-2.51,1.05-2.51,2.65,0,1.44.99,2.4,2.39,2.4.65,0,1.44-.35,1.93-.76l-1.56-2.13.17,2.5c0,1.82-1,3.1-2.94,3.99l1.02,2.03ZM607.67,70.95c3.06-1.4,4.58-3.62,4.58-6.47,0-2.64-1.12-4.2-3.08-4.2-1.45,0-2.51,1.05-2.51,2.65,0,1.44.99,2.4,2.39,2.4.65,0,1.44-.35,1.93-.76l-1.56-2.13.17,2.5c0,1.82-1,3.1-2.94,3.99l1.02,2.03Z"/>
        <path class="cls-5" d="M670.52,78.55h3.87v-6.64h6.4v-3.24h-6.4v-3.96h7.49v-3.24h-11.36v17.08ZM653.55,78.55h3.22v-5.29c0-1.92-.32-6.09-.52-7.94h.09l1.22,4.58,1.35,4.12h1.88l1.33-4.12,1.31-4.58h.08c-.18,1.85-.52,6.01-.52,7.94v5.29h3.27v-17.08h-4.05l-1.68,6.05-.57,2.36h-.1l-.57-2.36-1.67-6.05h-4.05v17.08ZM639.06,78.55h3.87v-6.64h6.4v-3.24h-6.4v-3.96h7.49v-3.24h-11.36v17.08Z"/>
        <path class="cls-2" d="M701.16,82.74h3.23l8.64-22.81h-3.23l-8.64,22.81ZM696.67,77.75v-3.5l-6.96-4.35v-.1l6.96-4.35v-3.5l-10.14,6.57v2.66l10.14,6.57Z"/>
        <path class="cls-1" d="M722.06,75.88c-1.09,0-1.79-.41-1.79-1.24,0-1.11,1.03-1.94,4.85-2.13v2.13c-.92.71-1.9,1.24-3.06,1.24ZM720.84,78.86c1.67,0,3.3-.79,4.61-1.78h.1l.28,1.47h3.15v-7.43c0-3.99-2.21-5.89-5.87-5.89-2.21,0-4.28.73-6.09,1.76l1.38,2.53c1.46-.73,2.71-1.22,3.96-1.22,1.75,0,2.62.71,2.76,1.87-6.14.37-8.55,1.86-8.55,4.77,0,2.19,1.64,3.92,4.28,3.92Z"/>
        <polygon class="cls-2" points="733.24 77.75 743.38 71.18 743.38 68.52 733.24 61.95 733.24 65.44 740.2 69.79 740.2 69.9 733.24 74.25 733.24 77.75"/>
        <polygon class="cls-1" points="41.46 93.28 41.46 92.78 21.36 92.78 21.36 54.46 40.96 54.46 40.96 93.28 41.46 93.28 41.46 92.78 41.46 93.28 41.96 93.28 41.96 53.46 20.36 53.46 20.36 93.78 41.96 93.78 41.96 93.28 41.46 93.28"/>
        <polygon class="cls-1" points="733.36 93.8 733.36 93.3 713.26 93.3 713.26 54.98 732.86 54.98 732.86 93.8 733.36 93.8 733.36 93.3 733.36 93.8 733.86 93.8 733.86 53.98 712.26 53.98 712.26 94.3 733.86 94.3 733.86 93.8 733.36 93.8"/>
        <polygon class="cls-1" points="30.66 93.8 30.66 163.58 722.63 163.58 722.63 93.8 721.63 93.8 721.63 162.58 31.66 162.58 31.66 93.8 30.66 93.8 30.66 93.8"/>
        <path class="cls-1" d="M434.66,184.3c-.23-.74-.56-1.39-1.01-1.95-.45-.56-1-1-1.67-1.32-.66-.32-1.43-.48-2.31-.48-.73,0-1.42.14-2.06.42-.64.28-1.2.69-1.68,1.22-.48.53-.87,1.18-1.17,1.93-.3.75-.47,1.6-.52,2.54h10.75c0-.82-.11-1.6-.34-2.35ZM424.58,189.7c.2.78.51,1.45.93,2.03.42.58.96,1.03,1.63,1.36.66.33,1.48.5,2.44.5,1.42,0,2.59-.37,3.53-1.11s1.52-1.86,1.74-3.34h.52c-.19,1.57-.81,2.79-1.86,3.66-1.05.87-2.34,1.3-3.88,1.3-1.05.02-1.94-.15-2.69-.5-.74-.35-1.35-.84-1.82-1.48-.47-.64-.82-1.39-1.05-2.25s-.34-1.8-.34-2.79c0-1.12.17-2.11.5-2.99.33-.87.77-1.61,1.31-2.21.54-.6,1.17-1.06,1.89-1.38s1.45-.47,2.2-.47c1.05,0,1.95.2,2.71.6.76.4,1.38.94,1.86,1.6.48.66.83,1.42,1.05,2.28.22.86.31,1.75.27,2.67h-11.27c.02.91.13,1.75.33,2.53ZM413.4,193.8h-.52v-18.72h.52v12.98l9.31-7.73h.76l-6.19,5.14,6.63,8.34h-.71l-6.32-7.97-3.49,2.88v5.09ZM402.23,175h-.52l2.96,3.64h.39l2.96-3.64h-.52l-2.6,3.22-2.67-3.22ZM410.07,191.24c-.3.6-.69,1.11-1.17,1.53-.48.42-1.04.74-1.68.97-.64.23-1.34.34-2.11.34-.96,0-1.81-.18-2.56-.54-.74-.36-1.37-.84-1.87-1.46-.51-.61-.89-1.32-1.15-2.14-.26-.81-.39-1.68-.39-2.61,0-.98.13-1.91.38-2.79.25-.88.64-1.66,1.15-2.33.52-.67,1.17-1.21,1.97-1.61.79-.4,1.73-.6,2.79-.6.63,0,1.23.1,1.81.29.58.19,1.09.47,1.55.84.45.37.83.83,1.14,1.38.31.55.5,1.18.59,1.9h-.52c-.1-.66-.3-1.24-.58-1.72-.28-.48-.62-.88-1.02-1.21-.4-.32-.86-.56-1.36-.72-.51-.16-1.04-.24-1.6-.24-1.07,0-1.97.21-2.71.62-.74.41-1.34.94-1.78,1.6s-.77,1.39-.97,2.2c-.2.81-.3,1.61-.3,2.4s.12,1.61.35,2.36c.24.75.58,1.42,1.04,1.99.45.58,1.02,1.04,1.7,1.38.68.34,1.47.51,2.36.51.66,0,1.28-.1,1.86-.3.58-.2,1.09-.49,1.53-.88.45-.38.81-.84,1.09-1.38s.45-1.14.5-1.82h.52c-.07.75-.25,1.43-.55,2.03ZM396.15,185.88c-.17.24-.45.43-.81.56-.37.13-.79.23-1.26.3-.47.07-.98.11-1.53.13-.55.02-1.09.04-1.61.08-.52.04-1.04.1-1.53.2s-.94.27-1.32.52c-.38.25-.69.6-.92,1.05-.23.45-.34,1.03-.34,1.74,0,.38.07.77.2,1.14.13.38.35.71.67,1,.31.29.72.52,1.22.71s1.11.27,1.85.27c.87,0,1.65-.15,2.33-.45.68-.3,1.25-.69,1.72-1.17s.81-1.04,1.05-1.67c.24-.63.35-1.28.35-1.94v-2.49h-.05ZM387.52,182.72c.23-.55.55-1.03.98-1.43.43-.4.95-.72,1.57-.94.62-.23,1.35-.34,2.19-.34.59,0,1.16.06,1.69.18.53.12,1,.34,1.4.64.4.31.72.7.97,1.19.24.49.38,1.1.39,1.83v8.57c0,.26.05.45.16.58.1.12.24.21.42.25.17.04.36.06.56.05.2,0,.39-.02.56-.04v.52h-.79c-.38,0-.72-.09-1.01-.28-.29-.18-.43-.53-.43-1.04v-1.76h-.05c-.14.44-.36.86-.67,1.26-.31.4-.69.76-1.15,1.08-.46.31-.99.56-1.59.75-.59.18-1.24.28-1.94.28-1.36,0-2.46-.3-3.28-.9-.82-.6-1.23-1.51-1.23-2.71,0-.84.14-1.51.41-2.02.27-.51.62-.9,1.06-1.19.44-.29.93-.49,1.49-.6.56-.11,1.12-.19,1.68-.22.93-.05,1.72-.1,2.39-.14.66-.04,1.21-.13,1.64-.26.43-.13.74-.33.94-.6.2-.27.3-.66.3-1.17,0-.4-.04-.82-.1-1.26-.07-.44-.24-.84-.51-1.21-.27-.37-.67-.67-1.19-.9s-1.23-.35-2.12-.35c-1.42,0-2.52.35-3.3,1.04-.79.69-1.22,1.66-1.31,2.92h-.52c.04-.63.17-1.22.39-1.77ZM374.57,180.32v3.33h.05c.12-.52.32-1,.59-1.44.27-.44.61-.82,1.02-1.15.41-.33.89-.59,1.43-.77.54-.18,1.14-.28,1.81-.28.7,0,1.34.1,1.93.31.59.21,1.09.52,1.52.93.43.41.76.92,1,1.52s.35,1.3.35,2.08v8.94h-.52v-8.86c0-.79-.11-1.46-.34-2.01-.23-.55-.54-1-.93-1.36-.39-.36-.85-.62-1.36-.79-.52-.17-1.06-.25-1.64-.25-.8,0-1.51.15-2.12.46-.61.31-1.12.72-1.53,1.23-.41.52-.72,1.11-.93,1.8-.21.68-.31,1.4-.31,2.15v7.63h-.52v-13.47h.52ZM372.47,193.8h-10.41v-.66l9.44-12.3h-8.73v-.52h9.28v.66l-9.44,12.29h9.86v.52ZM353.13,184.3c-.23-.74-.56-1.39-1.01-1.95-.45-.56-1-1-1.67-1.32-.66-.32-1.43-.48-2.31-.48-.73,0-1.42.14-2.06.42-.64.28-1.2.69-1.68,1.22-.48.53-.87,1.18-1.17,1.93-.3.75-.47,1.6-.52,2.54h10.75c0-.82-.11-1.6-.34-2.35ZM343.05,189.7c.2.78.51,1.45.93,2.03.42.58.96,1.03,1.63,1.36.66.33,1.48.5,2.44.5,1.42,0,2.59-.37,3.53-1.11s1.52-1.86,1.74-3.34h.52c-.19,1.57-.81,2.79-1.86,3.66-1.05.87-2.34,1.3-3.88,1.3-1.05.02-1.94-.15-2.69-.5-.74-.35-1.35-.84-1.82-1.48-.47-.64-.82-1.39-1.05-2.25s-.34-1.8-.34-2.79c0-1.12.17-2.11.5-2.99.33-.87.77-1.61,1.31-2.21.54-.6,1.17-1.06,1.89-1.38s1.45-.47,2.2-.47c1.05,0,1.95.2,2.71.6.76.4,1.38.94,1.86,1.6.48.66.83,1.42,1.05,2.28.22.86.31,1.75.27,2.67h-11.27c.02.91.13,1.75.33,2.53ZM323.11,180.32v3.33h.05c.12-.52.31-1,.58-1.44.26-.44.59-.82.97-1.15.38-.33.81-.59,1.27-.77.46-.18.96-.28,1.48-.28,1.05-.03,1.93.23,2.63.8.71.57,1.18,1.35,1.4,2.35h.05c.26-.94.78-1.7,1.55-2.28s1.68-.87,2.73-.87c.82,0,1.5.12,2.04.37.54.25.98.58,1.31,1.01.33.43.57.94.71,1.55.14.6.21,1.27.21,2.01v8.86h-.52v-8.86c0-.66-.06-1.27-.17-1.81-.11-.54-.31-1-.6-1.39-.29-.38-.67-.68-1.15-.89-.48-.21-1.09-.31-1.82-.31-.65,0-1.23.13-1.76.38s-.97.6-1.34,1.04c-.37.44-.65.94-.84,1.51-.19.57-.29,1.17-.29,1.8v8.55h-.52v-8.65c0-.63-.05-1.22-.14-1.78-.1-.56-.28-1.05-.54-1.47s-.63-.75-1.1-1c-.47-.24-1.08-.37-1.83-.37-.66,0-1.27.15-1.81.46-.54.31-1,.72-1.38,1.23-.38.52-.66,1.11-.87,1.8-.2.68-.3,1.4-.3,2.15v7.63h-.52v-13.47h.52ZM319.18,193.8v-13.47h.52v13.47h-.52ZM319.18,177.73v-2.65h.52v2.65h-.52Z"/>
        <polygon class="cls-4" points="150.5 84.52 150.5 99 150.07 99 150.07 100 604.66 100 604.66 84.52 603.66 84.52 603.66 99 150.07 99 150.07 100 151 100 151.5 100 151.5 84.52 150.5 84.52"/>
        <path class="cls-4" d="M460.49,121.15c-.17.24-.45.43-.81.56-.37.13-.79.23-1.26.3-.47.07-.98.11-1.53.13-.55.02-1.09.04-1.61.08-.52.04-1.04.1-1.53.2s-.94.27-1.32.52c-.38.25-.69.6-.92,1.05-.23.45-.34,1.03-.34,1.74,0,.38.07.77.2,1.14.13.38.35.71.67,1,.31.29.72.52,1.22.71s1.11.27,1.85.27c.87,0,1.65-.15,2.33-.45.68-.3,1.25-.69,1.72-1.17s.81-1.04,1.05-1.67c.24-.63.35-1.28.35-1.94v-2.49h-.05ZM451.86,117.99c.23-.55.55-1.03.98-1.43.43-.4.95-.72,1.57-.94.62-.23,1.35-.34,2.19-.34.59,0,1.16.06,1.69.18.53.12,1,.34,1.4.64.4.31.72.7.97,1.19.24.49.38,1.1.39,1.83v8.57c0,.26.05.45.16.58.1.12.24.21.42.25.17.04.36.06.56.05.2,0,.39-.02.56-.04v.52h-.79c-.38,0-.72-.09-1.01-.28-.29-.18-.43-.53-.43-1.04v-1.76h-.05c-.14.44-.36.86-.67,1.26-.31.4-.69.76-1.15,1.08-.46.31-.99.56-1.59.75-.59.18-1.24.28-1.94.28-1.36,0-2.46-.3-3.28-.9-.82-.6-1.23-1.51-1.23-2.71,0-.84.14-1.51.41-2.02.27-.51.62-.9,1.06-1.19.44-.29.93-.49,1.49-.6.56-.11,1.12-.19,1.68-.22.93-.05,1.72-.1,2.39-.14.66-.04,1.21-.13,1.64-.26.43-.13.74-.33.94-.6.2-.27.3-.66.3-1.17,0-.4-.04-.82-.1-1.26-.07-.44-.24-.84-.51-1.21-.27-.37-.67-.67-1.19-.9s-1.23-.35-2.12-.35c-1.42,0-2.52.35-3.3,1.04-.79.69-1.22,1.66-1.31,2.92h-.52c.04-.63.17-1.22.39-1.77ZM446.62,126.45c0,.51.06.9.17,1.18.11.28.26.49.43.63.17.14.37.22.58.25.21.03.42.04.63.04.26,0,.5,0,.71-.01.21,0,.36-.03.45-.07v.52c-.16.02-.31.04-.46.05-.15.02-.42.03-.83.03-.61,0-1.13-.18-1.56-.54-.43-.36-.64-1.02-.64-1.98v-10.43h-2.46v-.52h2.46v-4.25h.52v4.25h3.04v.52h-3.04v10.33ZM441.77,129.07v-3.33h-.05c-.25,1.05-.78,1.91-1.61,2.6-.83.68-1.91,1.02-3.24,1.02-.7,0-1.34-.1-1.93-.3-.59-.2-1.09-.51-1.52-.92-.43-.41-.76-.92-1-1.52s-.35-1.3-.35-2.08v-8.94h.52v8.86c0,.79.11,1.45.34,2.01.23.55.54,1.01.93,1.36.39.36.85.62,1.36.79.52.17,1.06.25,1.64.25.8,0,1.51-.15,2.12-.46.61-.31,1.12-.72,1.53-1.23.41-.52.72-1.11.93-1.8.21-.68.31-1.4.31-2.15v-7.63h.52v13.47h-.52ZM418.88,124.85c.24.79.6,1.48,1.06,2.07.46.59,1.04,1.07,1.72,1.42s1.45.52,2.31.52,1.64-.17,2.29-.52,1.2-.83,1.63-1.43c.43-.6.75-1.3.97-2.08.22-.79.33-1.61.33-2.46,0-.79-.1-1.57-.3-2.35-.2-.78-.51-1.48-.93-2.1-.42-.62-.96-1.13-1.61-1.52-.66-.39-1.45-.59-2.37-.59-1.64,0-2.96.56-3.96,1.69-1,1.13-1.49,2.75-1.49,4.86,0,.87.12,1.7.37,2.49ZM418.57,119.37c.31-1.22.93-2.21,1.86-2.96.93-.75,2.11-1.13,3.54-1.13.93,0,1.75.19,2.46.58.72.38,1.31.9,1.8,1.55.48.65.85,1.4,1.1,2.25.25.86.38,1.76.38,2.7,0,1.01-.13,1.95-.39,2.8-.26.86-.64,1.6-1.14,2.22-.5.62-1.1,1.11-1.81,1.46-.71.35-1.51.52-2.4.52-1.38,0-2.54-.38-3.47-1.13s-1.58-1.73-1.93-2.94h-.05v3.77h-.52v-18.72h.52v9.02h.05ZM414.58,129.07v-13.47h.52v13.47h-.52ZM414.58,113v-2.65h.52v2.65h-.52ZM407.79,129.07v-13.47h.52v3.33h.05c.12-.51.31-.98.58-1.43s.61-.83,1.05-1.17c.44-.33.96-.59,1.56-.79.6-.19,1.31-.28,2.11-.26v.52c-.93-.05-1.73.07-2.4.38-.67.31-1.23.73-1.67,1.26s-.76,1.15-.97,1.85c-.21.7-.31,1.42-.31,2.15v7.63h-.52ZM402.92,126.45c0,.51.06.9.17,1.18.11.28.26.49.43.63.17.14.37.22.58.25.21.03.42.04.63.04.26,0,.5,0,.71-.01.21,0,.36-.03.45-.07v.52c-.16.02-.31.04-.46.05-.15.02-.42.03-.83.03-.61,0-1.13-.18-1.56-.54-.43-.36-.64-1.02-.64-1.98v-10.43h-2.46v-.52h2.46v-4.25h.52v4.25h3.04v.52h-3.04v10.33ZM397.86,121.15c-.17.24-.45.43-.81.56-.37.13-.79.23-1.26.3-.47.07-.98.11-1.53.13-.55.02-1.09.04-1.61.08-.52.04-1.04.1-1.53.2s-.94.27-1.32.52c-.38.25-.69.6-.92,1.05-.23.45-.34,1.03-.34,1.74,0,.38.07.77.2,1.14.13.38.35.71.67,1,.31.29.72.52,1.22.71s1.11.27,1.85.27c.87,0,1.65-.15,2.33-.45.68-.3,1.25-.69,1.72-1.17s.81-1.04,1.05-1.67c.24-.63.35-1.28.35-1.94v-2.49h-.05ZM389.23,117.99c.23-.55.55-1.03.98-1.43.43-.4.95-.72,1.57-.94.62-.23,1.35-.34,2.19-.34.59,0,1.16.06,1.69.18.53.12,1,.34,1.4.64.4.31.72.7.97,1.19.24.49.38,1.1.39,1.83v8.57c0,.26.05.45.16.58.1.12.24.21.42.25.17.04.36.06.56.05.2,0,.39-.02.56-.04v.52h-.79c-.38,0-.72-.09-1.01-.28-.29-.18-.43-.53-.43-1.04v-1.76h-.05c-.14.44-.36.86-.67,1.26-.31.4-.69.76-1.15,1.08-.46.31-.99.56-1.59.75-.59.18-1.24.28-1.94.28-1.36,0-2.46-.3-3.28-.9-.82-.6-1.23-1.51-1.23-2.71,0-.84.14-1.51.41-2.02.27-.51.62-.9,1.06-1.19.44-.29.93-.49,1.49-.6.56-.11,1.12-.19,1.68-.22.93-.05,1.72-.1,2.39-.14.66-.04,1.21-.13,1.64-.26.43-.13.74-.33.94-.6.2-.27.3-.66.3-1.17,0-.4-.04-.82-.1-1.26-.07-.44-.24-.84-.51-1.21-.27-.37-.67-.67-1.19-.9s-1.23-.35-2.12-.35c-1.42,0-2.52.35-3.3,1.04-.79.69-1.22,1.66-1.31,2.92h-.52c.04-.63.17-1.22.39-1.77ZM376.7,126.45c0,.51.06.9.17,1.18.11.28.26.49.43.63.17.14.37.22.58.25.21.03.42.04.63.04.26,0,.5,0,.71-.01.21,0,.36-.03.45-.07v.52c-.16.02-.31.04-.46.05-.15.02-.42.03-.83.03-.61,0-1.13-.18-1.56-.54-.43-.36-.64-1.02-.64-1.98v-10.43h-2.46v-.52h2.46v-4.25h.52v4.25h3.04v.52h-3.04v10.33ZM371.59,117.85c-.21-.47-.51-.86-.89-1.17-.38-.31-.84-.53-1.38-.67-.53-.14-1.12-.21-1.77-.21-.94,0-1.69.13-2.23.38-.54.25-.94.54-1.21.86-.26.32-.43.64-.5.96s-.1.53-.1.66c0,.66.14,1.18.41,1.53.27.36.63.63,1.09.83.47.19.98.36,1.53.5.55.14,1.19.31,1.93.5.52.14,1.04.28,1.56.43.52.15.98.35,1.39.62.41.26.74.59,1,1,.25.4.38.93.38,1.57,0,.68-.14,1.26-.43,1.73-.29.47-.66.86-1.13,1.15-.46.3-.99.51-1.57.64-.59.13-1.17.2-1.74.2-1.8,0-3.16-.39-4.08-1.18-.92-.79-1.38-2.03-1.38-3.72h.52c0,1.52.42,2.63,1.27,3.34s2.07,1.06,3.66,1.06c.49,0,.99-.06,1.51-.17s.98-.3,1.4-.55c.42-.25.76-.58,1.04-.98s.41-.89.41-1.47-.14-1.07-.41-1.44c-.27-.37-.62-.67-1.05-.9-.43-.24-.92-.42-1.48-.56-.56-.14-1.13-.28-1.7-.42-.65-.16-1.21-.31-1.7-.45-.49-.14-.93-.3-1.31-.47-.56-.24-.97-.58-1.23-1.02s-.39-1.02-.39-1.76c0-.37.08-.75.24-1.15.16-.4.42-.77.79-1.1.37-.33.84-.6,1.42-.81.58-.21,1.28-.31,2.12-.31,1.5,0,2.69.34,3.57,1.02s1.31,1.77,1.31,3.28h-.52c0-.68-.1-1.26-.31-1.73ZM349.2,119.67c.26-.85.65-1.59,1.17-2.24.52-.65,1.15-1.17,1.9-1.56.75-.39,1.63-.59,2.62-.59s1.84.2,2.6.59c.75.39,1.39.91,1.9,1.56.52.65.9,1.39,1.17,2.24.26.85.39,1.73.39,2.66s-.13,1.81-.39,2.66c-.26.85-.65,1.6-1.17,2.24-.52.65-1.15,1.16-1.9,1.55-.75.38-1.62.58-2.62.58s-1.84-.19-2.6-.58c-.75-.38-1.39-.9-1.9-1.55-.52-.65-.9-1.39-1.17-2.24-.26-.85-.39-1.73-.39-2.66s.13-1.81.39-2.66ZM349.69,124.8c.24.79.59,1.48,1.06,2.08.47.6,1.05,1.08,1.74,1.44.69.36,1.49.54,2.4.54s1.68-.18,2.37-.54c.69-.36,1.27-.84,1.74-1.44.47-.6.83-1.3,1.06-2.08.24-.79.35-1.61.35-2.46s-.12-1.65-.35-2.44c-.24-.79-.59-1.48-1.06-2.08-.47-.6-1.05-1.09-1.74-1.45-.69-.37-1.48-.55-2.37-.55s-1.71.18-2.4.55c-.69.37-1.27.85-1.74,1.45-.47.6-.83,1.3-1.06,2.08-.24.79-.35,1.6-.35,2.44s.12,1.68.35,2.46ZM336.93,115.6v3.33h.05c.12-.52.32-1,.59-1.44.27-.44.61-.82,1.02-1.15.41-.33.89-.59,1.43-.77.54-.18,1.14-.28,1.81-.28.7,0,1.34.1,1.93.31.59.21,1.09.52,1.52.93.43.41.76.92,1,1.52s.35,1.3.35,2.08v8.94h-.52v-8.86c0-.79-.11-1.46-.34-2.01-.23-.55-.54-1-.93-1.36-.39-.36-.85-.62-1.36-.79-.52-.17-1.06-.25-1.64-.25-.8,0-1.51.15-2.12.46-.61.31-1.12.72-1.53,1.23-.41.52-.72,1.11-.93,1.8-.21.68-.31,1.4-.31,2.15v7.63h-.52v-13.47h.52ZM331.32,117.5c-1-1.13-2.32-1.69-3.96-1.69-.91,0-1.7.2-2.36.59-.66.39-1.21.9-1.63,1.52-.42.62-.73,1.32-.93,2.1-.2.78-.3,1.56-.3,2.35,0,.86.11,1.68.33,2.46.22.79.54,1.48.97,2.08.43.6.97,1.08,1.62,1.43.66.35,1.42.52,2.29.52s1.65-.17,2.32-.52c.67-.35,1.24-.82,1.7-1.42.46-.59.82-1.28,1.06-2.07.24-.79.37-1.62.37-2.49,0-2.11-.5-3.74-1.49-4.86ZM333.34,110.35v18.72h-.52v-3.77h-.05c-.35,1.21-.99,2.18-1.93,2.94-.94.75-2.09,1.13-3.47,1.13-.89,0-1.69-.18-2.4-.52-.71-.35-1.31-.83-1.81-1.46-.5-.62-.88-1.36-1.14-2.22-.26-.86-.39-1.79-.39-2.8,0-.94.13-1.84.38-2.7.25-.86.62-1.61,1.1-2.25.48-.65,1.08-1.16,1.8-1.55s1.54-.58,2.46-.58c1.43,0,2.61.38,3.54,1.13.93.75,1.55,1.74,1.86,2.96h.05v-9.02h.52ZM319.37,119.57c-.23-.74-.56-1.39-1.01-1.95-.45-.56-1-1-1.67-1.32-.66-.32-1.43-.48-2.31-.48-.73,0-1.42.14-2.06.42-.64.28-1.2.69-1.68,1.22-.48.53-.87,1.18-1.17,1.93-.3.75-.47,1.6-.52,2.54h10.75c0-.82-.11-1.6-.34-2.35ZM309.29,124.97c.2.78.51,1.45.93,2.03.42.58.96,1.03,1.63,1.36.66.33,1.48.5,2.44.5,1.42,0,2.59-.37,3.53-1.11s1.52-1.86,1.74-3.34h.52c-.19,1.57-.81,2.79-1.86,3.66-1.05.87-2.34,1.3-3.88,1.3-1.05.02-1.94-.15-2.69-.5-.74-.35-1.35-.84-1.82-1.48-.47-.64-.82-1.39-1.05-2.25s-.34-1.8-.34-2.79c0-1.12.17-2.11.5-2.99.33-.87.77-1.61,1.31-2.21.54-.6,1.17-1.06,1.89-1.38s1.45-.47,2.2-.47c1.05,0,1.95.2,2.71.6.76.4,1.38.94,1.86,1.6.48.66.83,1.42,1.05,2.28.22.86.31,1.75.27,2.67h-11.27c.02.91.13,1.75.33,2.53ZM302.44,129.07v-13.47h.52v3.33h.05c.12-.51.31-.98.58-1.43s.61-.83,1.05-1.17c.44-.33.96-.59,1.56-.79.6-.19,1.31-.28,2.11-.26v.52c-.93-.05-1.73.07-2.4.38-.67.31-1.23.73-1.67,1.26s-.76,1.15-.97,1.85c-.21.7-.31,1.42-.31,2.15v7.63h-.52ZM301.31,115.6l-5.09,13.47h-.66l-5.53-13.47h.6l5.22,12.95h.05l4.82-12.95h.58Z"/>
        <polygon class="cls-3" points="54.51 84.52 54.51 99 54.08 99 54.08 100 115.43 100 115.43 84.52 114.43 84.52 114.43 99 54.08 99 54.08 100 55.01 100 55.51 100 55.51 84.52 54.51 84.52"/>
        <path class="cls-3" d="M112.94,125.83c0,.51.06.9.17,1.18.11.28.26.49.43.63.17.14.37.22.58.25.21.03.42.04.63.04.26,0,.5,0,.71-.01.21,0,.36-.03.45-.07v.52c-.16.02-.31.04-.46.05-.15.02-.42.03-.83.03-.61,0-1.13-.18-1.56-.54-.43-.36-.64-1.02-.64-1.98v-10.43h-2.46v-.52h2.46v-4.25h.52v4.25h3.04v.52h-3.04v10.33ZM108.08,128.46v-3.33h-.05c-.25,1.05-.78,1.91-1.61,2.6-.83.68-1.91,1.02-3.24,1.02-.7,0-1.34-.1-1.93-.3-.59-.2-1.09-.51-1.52-.92-.43-.41-.76-.92-1-1.52s-.35-1.3-.35-2.08v-8.94h.52v8.86c0,.79.11,1.45.34,2.01.23.55.54,1.01.93,1.36.39.36.85.62,1.36.79.52.17,1.06.25,1.64.25.8,0,1.51-.15,2.12-.46.61-.31,1.12-.72,1.53-1.23.41-.52.72-1.11.93-1.8.21-.68.31-1.4.31-2.15v-7.63h.52v13.47h-.52ZM85.2,124.24c.24.79.6,1.48,1.06,2.07.46.59,1.04,1.07,1.72,1.42s1.45.52,2.31.52,1.64-.17,2.29-.52,1.2-.83,1.63-1.43c.43-.6.75-1.3.97-2.08.22-.79.33-1.61.33-2.46,0-.79-.1-1.57-.3-2.35-.2-.78-.51-1.48-.93-2.1-.42-.62-.96-1.13-1.61-1.52-.66-.39-1.45-.59-2.37-.59-1.64,0-2.96.56-3.96,1.69-1,1.13-1.49,2.75-1.49,4.86,0,.87.12,1.7.37,2.49ZM84.88,118.76c.31-1.22.93-2.21,1.86-2.96.93-.75,2.11-1.13,3.54-1.13.93,0,1.75.19,2.46.58.72.38,1.31.9,1.8,1.55.48.65.85,1.4,1.1,2.25.25.86.38,1.76.38,2.7,0,1.01-.13,1.95-.39,2.8-.26.86-.64,1.6-1.14,2.22-.5.62-1.1,1.11-1.81,1.46-.71.35-1.51.52-2.4.52-1.38,0-2.54-.38-3.47-1.13s-1.58-1.73-1.93-2.94h-.05v3.77h-.52v-18.72h.52v9.02h.05ZM80.9,128.46v-13.47h.52v13.47h-.52ZM80.9,112.39v-2.65h.52v2.65h-.52ZM74.11,128.46v-13.47h.52v3.33h.05c.12-.51.31-.98.58-1.43s.61-.83,1.05-1.17c.44-.33.96-.59,1.56-.79.6-.19,1.31-.28,2.11-.26v.52c-.93-.05-1.73.07-2.4.38-.67.31-1.23.73-1.67,1.26s-.76,1.15-.97,1.85c-.21.7-.31,1.42-.31,2.15v7.63h-.52ZM69.23,125.83c0,.51.06.9.17,1.18.11.28.26.49.43.63.17.14.37.22.58.25.21.03.42.04.63.04.26,0,.5,0,.71-.01.21,0,.36-.03.45-.07v.52c-.16.02-.31.04-.46.05-.15.02-.42.03-.83.03-.61,0-1.13-.18-1.56-.54-.43-.36-.64-1.02-.64-1.98v-10.43h-2.46v-.52h2.46v-4.25h.52v4.25h3.04v.52h-3.04v10.33ZM64.18,120.54c-.17.24-.45.43-.81.56-.37.13-.79.23-1.26.3-.47.07-.98.11-1.53.13-.55.02-1.09.04-1.61.08-.52.04-1.04.1-1.53.2s-.94.27-1.32.52c-.38.25-.69.6-.92,1.05-.23.45-.34,1.03-.34,1.74,0,.38.07.77.2,1.14.13.38.35.71.67,1,.31.29.72.52,1.22.71s1.11.27,1.85.27c.87,0,1.65-.15,2.33-.45.68-.3,1.25-.69,1.72-1.17s.81-1.04,1.05-1.67c.24-.63.35-1.28.35-1.94v-2.49h-.05ZM55.55,117.38c.23-.55.55-1.03.98-1.43.43-.4.95-.72,1.57-.94.62-.23,1.35-.34,2.19-.34.59,0,1.16.06,1.69.18.53.12,1,.34,1.4.64.4.31.72.7.97,1.19.24.49.38,1.1.39,1.83v8.57c0,.26.05.45.16.58.1.12.24.21.42.25.17.04.36.06.56.05.2,0,.39-.02.56-.04v.52h-.79c-.38,0-.72-.09-1.01-.28-.29-.18-.43-.53-.43-1.04v-1.76h-.05c-.14.44-.36.86-.67,1.26-.31.4-.69.76-1.15,1.08-.46.31-.99.56-1.59.75-.59.18-1.24.28-1.94.28-1.36,0-2.46-.3-3.28-.9-.82-.6-1.23-1.51-1.23-2.71,0-.84.14-1.51.41-2.02.27-.51.62-.9,1.06-1.19.44-.29.93-.49,1.49-.6.56-.11,1.12-.19,1.68-.22.93-.05,1.72-.1,2.39-.14.66-.04,1.21-.13,1.64-.26.43-.13.74-.33.94-.6.2-.27.3-.66.3-1.17,0-.4-.04-.82-.1-1.26-.07-.44-.24-.84-.51-1.21-.27-.37-.67-.67-1.19-.9s-1.23-.35-2.12-.35c-1.42,0-2.52.35-3.3,1.04-.79.69-1.22,1.66-1.31,2.92h-.52c.04-.63.17-1.22.39-1.77Z"/>
        <polygon class="cls-5" points="636.72 84.87 636.72 99.35 636.29 99.35 636.29 100.35 680.79 100.35 680.79 84.87 679.79 84.87 679.79 99.35 636.29 99.35 636.29 100.35 637.22 100.35 637.72 100.35 637.72 84.87 636.72 84.87"/>
        <path class="cls-5" d="M695.29,120.89c-.17.24-.45.43-.81.56-.37.13-.79.23-1.26.3-.47.07-.98.11-1.53.13-.55.02-1.09.04-1.61.08-.52.04-1.04.1-1.53.2s-.94.27-1.32.52c-.38.25-.69.6-.92,1.05-.23.45-.34,1.03-.34,1.74,0,.38.07.77.2,1.14.13.38.35.71.67,1,.31.29.72.52,1.22.71s1.11.27,1.85.27c.87,0,1.65-.15,2.33-.45.68-.3,1.25-.69,1.72-1.17s.81-1.04,1.05-1.67c.24-.63.35-1.28.35-1.94v-2.49h-.05ZM686.66,117.73c.23-.55.55-1.03.98-1.43.43-.4.95-.72,1.57-.94.62-.23,1.35-.34,2.19-.34.59,0,1.16.06,1.69.18.53.12,1,.34,1.4.64.4.31.72.7.97,1.19.24.49.38,1.1.39,1.83v8.57c0,.26.05.45.16.58.1.12.24.21.42.25.17.04.36.06.56.05.2,0,.39-.02.56-.04v.52h-.79c-.38,0-.72-.09-1.01-.28-.29-.18-.43-.53-.43-1.04v-1.76h-.05c-.14.44-.36.86-.67,1.26-.31.4-.69.76-1.15,1.08-.46.31-.99.56-1.59.75-.59.18-1.24.28-1.94.28-1.36,0-2.46-.3-3.28-.9-.82-.6-1.23-1.51-1.23-2.71,0-.84.14-1.51.41-2.02.27-.51.62-.9,1.06-1.19.44-.29.93-.49,1.49-.6.56-.11,1.12-.19,1.68-.22.93-.05,1.72-.1,2.39-.14.66-.04,1.21-.13,1.64-.26.43-.13.74-.33.94-.6.2-.27.3-.66.3-1.17,0-.4-.04-.82-.1-1.26-.07-.44-.24-.84-.51-1.21-.27-.37-.67-.67-1.19-.9s-1.23-.35-2.12-.35c-1.42,0-2.52.35-3.3,1.04-.79.69-1.22,1.66-1.31,2.92h-.52c.04-.63.17-1.22.39-1.77ZM673.71,115.33v3.33h.05c.12-.52.32-1,.59-1.44.27-.44.61-.82,1.02-1.15.41-.33.89-.59,1.43-.77.54-.18,1.14-.28,1.81-.28.7,0,1.34.1,1.93.31.59.21,1.09.52,1.52.93.43.41.76.92,1,1.52s.35,1.3.35,2.08v8.94h-.52v-8.86c0-.79-.11-1.46-.34-2.01-.23-.55-.54-1-.93-1.36-.39-.36-.85-.62-1.36-.79-.52-.17-1.06-.25-1.64-.25-.8,0-1.51.15-2.12.46-.61.31-1.12.72-1.53,1.23-.41.52-.72,1.11-.93,1.8-.21.68-.31,1.4-.31,2.15v7.63h-.52v-13.47h.52ZM669.78,128.81v-13.47h.52v13.47h-.52ZM669.78,112.74v-2.65h.52v2.65h-.52ZM656.59,124.59c.24.79.6,1.48,1.06,2.07.46.59,1.04,1.07,1.72,1.42s1.45.52,2.31.52,1.64-.17,2.29-.52,1.2-.83,1.63-1.43c.43-.6.75-1.3.97-2.08.22-.79.33-1.61.33-2.46,0-.79-.1-1.57-.3-2.35-.2-.78-.51-1.48-.93-2.1-.42-.62-.96-1.13-1.61-1.52-.66-.39-1.45-.59-2.37-.59-1.64,0-2.96.56-3.96,1.69-1,1.13-1.49,2.75-1.49,4.86,0,.87.12,1.7.37,2.49ZM656.28,119.11c.31-1.22.93-2.21,1.86-2.96.93-.75,2.11-1.13,3.54-1.13.93,0,1.75.19,2.46.58.72.38,1.31.9,1.8,1.55.48.65.85,1.4,1.1,2.25.25.86.38,1.76.38,2.7,0,1.01-.13,1.95-.39,2.8-.26.86-.64,1.6-1.14,2.22-.5.62-1.1,1.11-1.81,1.46-.71.35-1.51.52-2.4.52-1.38,0-2.54-.38-3.47-1.13s-1.58-1.73-1.93-2.94h-.05v3.77h-.52v-18.72h.52v9.02h.05ZM652.74,119.31c-.23-.74-.56-1.39-1.01-1.95-.45-.56-1-1-1.67-1.32-.66-.32-1.43-.48-2.31-.48-.73,0-1.42.14-2.06.42-.64.28-1.2.69-1.68,1.22-.48.53-.87,1.18-1.17,1.93-.3.75-.47,1.6-.52,2.54h10.75c0-.82-.11-1.6-.34-2.35ZM642.66,124.71c.2.78.51,1.45.93,2.03.42.58.96,1.03,1.63,1.36.66.33,1.48.5,2.44.5,1.42,0,2.59-.37,3.53-1.11s1.52-1.86,1.74-3.34h.52c-.19,1.57-.81,2.79-1.86,3.66-1.05.87-2.34,1.3-3.88,1.3-1.05.02-1.94-.15-2.69-.5-.74-.35-1.35-.84-1.82-1.48-.47-.64-.82-1.39-1.05-2.25s-.34-1.8-.34-2.79c0-1.12.17-2.11.5-2.99.33-.87.77-1.61,1.31-2.21.54-.6,1.17-1.06,1.89-1.38s1.45-.47,2.2-.47c1.05,0,1.95.2,2.71.6.76.4,1.38.94,1.86,1.6.48.66.83,1.42,1.05,2.28.22.86.31,1.75.27,2.67h-11.27c.02.91.13,1.75.33,2.53ZM638.93,117.59c-.21-.47-.51-.86-.89-1.17-.38-.31-.84-.53-1.38-.67-.53-.14-1.12-.21-1.77-.21-.94,0-1.69.13-2.23.38-.54.25-.94.54-1.21.86-.26.32-.43.64-.5.96s-.1.53-.1.66c0,.66.14,1.18.41,1.53.27.36.63.63,1.09.83.47.19.98.36,1.53.5.55.14,1.19.31,1.93.5.52.14,1.04.28,1.56.43.52.15.98.35,1.39.62.41.26.74.59,1,1,.25.4.38.93.38,1.57,0,.68-.14,1.26-.43,1.73-.29.47-.66.86-1.13,1.15-.46.3-.99.51-1.57.64-.59.13-1.17.2-1.74.2-1.8,0-3.16-.39-4.08-1.18-.92-.79-1.38-2.03-1.38-3.72h.52c0,1.52.42,2.63,1.27,3.34s2.07,1.06,3.66,1.06c.49,0,.99-.06,1.51-.17s.98-.3,1.4-.55c.42-.25.76-.58,1.04-.98s.41-.89.41-1.47-.14-1.07-.41-1.44c-.27-.37-.62-.67-1.05-.9-.43-.24-.92-.42-1.48-.56-.56-.14-1.13-.28-1.7-.42-.65-.16-1.21-.31-1.7-.45-.49-.14-.93-.3-1.31-.47-.56-.24-.97-.58-1.23-1.02s-.39-1.02-.39-1.76c0-.37.08-.75.24-1.15.16-.4.42-.77.79-1.1.37-.33.84-.6,1.42-.81.58-.21,1.28-.31,2.12-.31,1.5,0,2.69.34,3.57,1.02s1.31,1.77,1.31,3.28h-.52c0-.68-.1-1.26-.31-1.73ZM629.33,115.33l-5.09,13.47h-.66l-5.53-13.47h.6l5.22,12.95h.05l4.82-12.95h.58Z"/>
        <polygon class="cls-5" points="634.9 50.2 634.9 35.72 635.33 35.72 635.33 34.72 10.34 34.72 10.34 50.2 11.34 50.2 11.34 35.72 635.33 35.72 635.33 34.72 634.4 34.72 633.9 34.72 633.9 50.2 634.9 50.2"/>
        <path class="cls-5" d="M401.27,17.55c-.17.24-.45.43-.81.56-.37.13-.79.23-1.26.3-.47.07-.98.11-1.53.13-.55.02-1.09.04-1.61.08-.52.04-1.04.1-1.53.2s-.94.27-1.32.52c-.38.25-.69.6-.92,1.05-.23.45-.34,1.03-.34,1.74,0,.38.07.77.2,1.14.13.38.35.71.67,1,.31.29.72.52,1.22.71s1.11.27,1.85.27c.87,0,1.65-.15,2.33-.45.68-.3,1.25-.69,1.72-1.17s.81-1.04,1.05-1.67c.24-.63.35-1.28.35-1.94v-2.49h-.05ZM392.65,14.39c.23-.55.55-1.03.98-1.43.43-.4.95-.72,1.57-.94.62-.23,1.35-.34,2.19-.34.59,0,1.16.06,1.69.18.53.12,1,.34,1.4.64.4.31.72.7.97,1.19.24.49.38,1.1.39,1.83v8.57c0,.26.05.45.16.58.1.12.24.21.42.25.17.04.36.06.56.05.2,0,.39-.02.56-.04v.52h-.79c-.38,0-.72-.09-1.01-.28-.29-.18-.43-.53-.43-1.04v-1.76h-.05c-.14.44-.36.86-.67,1.26-.31.4-.69.76-1.15,1.08-.46.31-.99.56-1.59.75-.59.18-1.24.28-1.94.28-1.36,0-2.46-.3-3.28-.9-.82-.6-1.23-1.51-1.23-2.71,0-.84.14-1.51.41-2.02.27-.51.62-.9,1.06-1.19.44-.29.93-.49,1.49-.6.56-.11,1.12-.19,1.68-.22.93-.05,1.72-.1,2.39-.14.66-.04,1.21-.13,1.64-.26.43-.13.74-.33.94-.6.2-.27.3-.66.3-1.17,0-.4-.04-.82-.1-1.26-.07-.44-.24-.84-.51-1.21-.27-.37-.67-.67-1.19-.9s-1.23-.35-2.12-.35c-1.42,0-2.52.35-3.3,1.04-.79.69-1.22,1.66-1.31,2.92h-.52c.04-.63.17-1.22.39-1.77ZM381.17,25.47h-.52V6.75h.52v12.98l9.31-7.73h.76l-6.19,5.14,6.63,8.34h-.71l-6.32-7.97-3.49,2.88v5.09ZM370,6.67h-.52l2.96,3.64h.39l2.96-3.64h-.52l-2.6,3.22-2.67-3.22ZM377.84,22.91c-.3.6-.69,1.11-1.17,1.53-.48.42-1.04.74-1.68.97-.64.23-1.34.34-2.11.34-.96,0-1.81-.18-2.56-.54-.74-.36-1.37-.84-1.87-1.46-.51-.61-.89-1.32-1.15-2.14-.26-.81-.39-1.68-.39-2.61,0-.98.13-1.91.38-2.79.25-.88.64-1.66,1.15-2.33.52-.67,1.17-1.21,1.97-1.61.79-.4,1.73-.6,2.79-.6.63,0,1.23.1,1.81.29.58.19,1.09.47,1.55.84.45.37.83.83,1.14,1.38.31.55.5,1.18.59,1.9h-.52c-.1-.66-.3-1.24-.58-1.72-.28-.48-.62-.88-1.02-1.21-.4-.32-.86-.56-1.36-.72-.51-.16-1.04-.24-1.6-.24-1.07,0-1.97.21-2.71.62-.74.41-1.34.94-1.78,1.6s-.77,1.39-.97,2.2c-.2.81-.3,1.61-.3,2.4s.12,1.61.35,2.36c.24.75.58,1.42,1.04,1.99.45.58,1.02,1.04,1.7,1.38.68.34,1.47.51,2.36.51.66,0,1.28-.1,1.86-.3.58-.2,1.09-.49,1.53-.88.45-.38.81-.84,1.09-1.38s.45-1.14.5-1.82h.52c-.07.75-.25,1.43-.55,2.03ZM363.92,17.55c-.17.24-.45.43-.81.56-.37.13-.79.23-1.26.3-.47.07-.98.11-1.53.13-.55.02-1.09.04-1.61.08-.52.04-1.04.1-1.53.2s-.94.27-1.32.52c-.38.25-.69.6-.92,1.05-.23.45-.34,1.03-.34,1.74,0,.38.07.77.2,1.14.13.38.35.71.67,1,.31.29.72.52,1.22.71s1.11.27,1.85.27c.87,0,1.65-.15,2.33-.45.68-.3,1.25-.69,1.72-1.17s.81-1.04,1.05-1.67c.24-.63.35-1.28.35-1.94v-2.49h-.05ZM355.29,14.39c.23-.55.55-1.03.98-1.43.43-.4.95-.72,1.57-.94.62-.23,1.35-.34,2.19-.34.59,0,1.16.06,1.69.18.53.12,1,.34,1.4.64.4.31.72.7.97,1.19.24.49.38,1.1.39,1.83v8.57c0,.26.05.45.16.58.1.12.24.21.42.25.17.04.36.06.56.05.2,0,.39-.02.56-.04v.52h-.79c-.38,0-.72-.09-1.01-.28-.29-.18-.43-.53-.43-1.04v-1.76h-.05c-.14.44-.36.86-.67,1.26-.31.4-.69.76-1.15,1.08-.46.31-.99.56-1.59.75-.59.18-1.24.28-1.94.28-1.36,0-2.46-.3-3.28-.9-.82-.6-1.23-1.51-1.23-2.71,0-.84.14-1.51.41-2.02.27-.51.62-.9,1.06-1.19.44-.29.93-.49,1.49-.6.56-.11,1.12-.19,1.68-.22.93-.05,1.72-.1,2.39-.14.66-.04,1.21-.13,1.64-.26.43-.13.74-.33.94-.6.2-.27.3-.66.3-1.17,0-.4-.04-.82-.1-1.26-.07-.44-.24-.84-.51-1.21-.27-.37-.67-.67-1.19-.9s-1.23-.35-2.12-.35c-1.42,0-2.52.35-3.3,1.04-.79.69-1.22,1.66-1.31,2.92h-.52c.04-.63.17-1.22.39-1.77ZM342.34,11.99v3.33h.05c.12-.52.32-1,.59-1.44.27-.44.61-.82,1.02-1.15.41-.33.89-.59,1.43-.77.54-.18,1.14-.28,1.81-.28.7,0,1.34.1,1.93.31.59.21,1.09.52,1.52.93.43.41.76.92,1,1.52s.35,1.3.35,2.08v8.94h-.52v-8.86c0-.79-.11-1.46-.34-2.01-.23-.55-.54-1-.93-1.36-.39-.36-.85-.62-1.36-.79-.52-.17-1.06-.25-1.64-.25-.8,0-1.51.15-2.12.46-.61.31-1.12.72-1.53,1.23-.41.52-.72,1.11-.93,1.8-.21.68-.31,1.4-.31,2.15v7.63h-.52v-13.47h.52ZM340.24,25.47h-10.41v-.66l9.44-12.3h-8.73v-.52h9.28v.66l-9.44,12.29h9.86v.52ZM320.24,17.55c-.17.24-.45.43-.81.56-.37.13-.79.23-1.26.3-.47.07-.98.11-1.53.13-.55.02-1.09.04-1.61.08-.52.04-1.04.1-1.53.2s-.94.27-1.32.52c-.38.25-.69.6-.92,1.05-.23.45-.34,1.03-.34,1.74,0,.38.07.77.2,1.14.13.38.35.71.67,1,.31.29.72.52,1.22.71s1.11.27,1.85.27c.87,0,1.65-.15,2.33-.45.68-.3,1.25-.69,1.72-1.17s.81-1.04,1.05-1.67c.24-.63.35-1.28.35-1.94v-2.49h-.05ZM311.62,14.39c.23-.55.55-1.03.98-1.43.43-.4.95-.72,1.57-.94.62-.23,1.35-.34,2.19-.34.59,0,1.16.06,1.69.18.53.12,1,.34,1.4.64.4.31.72.7.97,1.19.24.49.38,1.1.39,1.83v8.57c0,.26.05.45.16.58.1.12.24.21.42.25.17.04.36.06.56.05.2,0,.39-.02.56-.04v.52h-.79c-.38,0-.72-.09-1.01-.28-.29-.18-.43-.53-.43-1.04v-1.76h-.05c-.14.44-.36.86-.67,1.26-.31.4-.69.76-1.15,1.08-.46.31-.99.56-1.59.75-.59.18-1.24.28-1.94.28-1.36,0-2.46-.3-3.28-.9-.82-.6-1.23-1.51-1.23-2.71,0-.84.14-1.51.41-2.02.27-.51.62-.9,1.06-1.19.44-.29.93-.49,1.49-.6.56-.11,1.12-.19,1.68-.22.93-.05,1.72-.1,2.39-.14.66-.04,1.21-.13,1.64-.26.43-.13.74-.33.94-.6.2-.27.3-.66.3-1.17,0-.4-.04-.82-.1-1.26-.07-.44-.24-.84-.51-1.21-.27-.37-.67-.67-1.19-.9s-1.23-.35-2.12-.35c-1.42,0-2.52.35-3.3,1.04-.79.69-1.22,1.66-1.31,2.92h-.52c.04-.63.17-1.22.39-1.77ZM298.67,11.99v3.33h.05c.12-.52.32-1,.59-1.44.27-.44.61-.82,1.02-1.15.41-.33.89-.59,1.43-.77.54-.18,1.14-.28,1.81-.28.7,0,1.34.1,1.93.31.59.21,1.09.52,1.52.93.43.41.76.92,1,1.52s.35,1.3.35,2.08v8.94h-.52v-8.86c0-.79-.11-1.46-.34-2.01-.23-.55-.54-1-.93-1.36-.39-.36-.85-.62-1.36-.79-.52-.17-1.06-.25-1.64-.25-.8,0-1.51.15-2.12.46-.61.31-1.12.72-1.53,1.23-.41.52-.72,1.11-.93,1.8-.21.68-.31,1.4-.31,2.15v7.63h-.52v-13.47h.52ZM293.27,22.84c0,.51.06.9.17,1.18.11.28.26.49.43.63.17.14.37.22.58.25.21.03.42.04.63.04.26,0,.5,0,.71-.01.21,0,.36-.03.45-.07v.52c-.16.02-.31.04-.46.05-.15.02-.42.03-.83.03-.61,0-1.13-.18-1.56-.54-.43-.36-.64-1.02-.64-1.98v-10.43h-2.46v-.52h2.46v-4.25h.52v4.25h3.04v.52h-3.04v10.33ZM288.86,15.96c-.23-.74-.56-1.39-1.01-1.95-.45-.56-1-1-1.67-1.32-.66-.32-1.43-.48-2.31-.48-.73,0-1.42.14-2.06.42-.64.28-1.2.69-1.68,1.22-.48.53-.87,1.18-1.17,1.93-.3.75-.47,1.6-.52,2.54h10.75c0-.82-.11-1.6-.34-2.35ZM278.78,21.36c.2.78.51,1.45.93,2.03.42.58.96,1.03,1.63,1.36.66.33,1.48.5,2.44.5,1.42,0,2.59-.37,3.53-1.11s1.52-1.86,1.74-3.34h.52c-.19,1.57-.81,2.79-1.86,3.66-1.05.87-2.34,1.3-3.88,1.3-1.05.02-1.94-.15-2.69-.5-.74-.35-1.35-.84-1.82-1.48-.47-.64-.82-1.39-1.05-2.25s-.34-1.8-.34-2.79c0-1.12.17-2.11.5-2.99.33-.87.77-1.61,1.31-2.21.54-.6,1.17-1.06,1.89-1.38s1.45-.47,2.2-.47c1.05,0,1.95.2,2.71.6.76.4,1.38.94,1.86,1.6.48.66.83,1.42,1.05,2.28.22.86.31,1.75.27,2.67h-11.27c.02.91.13,1.75.33,2.53ZM268.07,6.67h-.52l2.96,3.64h.39l2.96-3.64h-.52l-2.6,3.22-2.67-3.22ZM275.91,22.91c-.3.6-.69,1.11-1.17,1.53-.48.42-1.04.74-1.68.97-.64.23-1.34.34-2.11.34-.96,0-1.81-.18-2.56-.54-.74-.36-1.37-.84-1.87-1.46-.51-.61-.89-1.32-1.15-2.14-.26-.81-.39-1.68-.39-2.61,0-.98.13-1.91.38-2.79.25-.88.64-1.66,1.15-2.33.52-.67,1.17-1.21,1.97-1.61.79-.4,1.73-.6,2.79-.6.63,0,1.23.1,1.81.29.58.19,1.09.47,1.55.84.45.37.83.83,1.14,1.38.31.55.5,1.18.59,1.9h-.52c-.1-.66-.3-1.24-.58-1.72-.28-.48-.62-.88-1.02-1.21-.4-.32-.86-.56-1.36-.72-.51-.16-1.04-.24-1.6-.24-1.07,0-1.97.21-2.71.62-.74.41-1.34.94-1.78,1.6s-.77,1.39-.97,2.2c-.2.81-.3,1.61-.3,2.4s.12,1.61.35,2.36c.24.75.58,1.42,1.04,1.99.45.58,1.02,1.04,1.7,1.38.68.34,1.47.51,2.36.51.66,0,1.28-.1,1.86-.3.58-.2,1.09-.49,1.53-.88.45-.38.81-.84,1.09-1.38s.45-1.14.5-1.82h.52c-.07.75-.25,1.43-.55,2.03ZM261.99,17.55c-.17.24-.45.43-.81.56-.37.13-.79.23-1.26.3-.47.07-.98.11-1.53.13-.55.02-1.09.04-1.61.08-.52.04-1.04.1-1.53.2s-.94.27-1.32.52c-.38.25-.69.6-.92,1.05-.23.45-.34,1.03-.34,1.74,0,.38.07.77.2,1.14.13.38.35.71.67,1,.31.29.72.52,1.22.71s1.11.27,1.85.27c.87,0,1.65-.15,2.33-.45.68-.3,1.25-.69,1.72-1.17s.81-1.04,1.05-1.67c.24-.63.35-1.28.35-1.94v-2.49h-.05ZM253.37,14.39c.23-.55.55-1.03.98-1.43.43-.4.95-.72,1.57-.94.62-.23,1.35-.34,2.19-.34.59,0,1.16.06,1.69.18.53.12,1,.34,1.4.64.4.31.72.7.97,1.19.24.49.38,1.1.39,1.83v8.57c0,.26.05.45.16.58.1.12.24.21.42.25.17.04.36.06.56.05.2,0,.39-.02.56-.04v.52h-.79c-.38,0-.72-.09-1.01-.28-.29-.18-.43-.53-.43-1.04v-1.76h-.05c-.14.44-.36.86-.67,1.26-.31.4-.69.76-1.15,1.08-.46.31-.99.56-1.59.75-.59.18-1.24.28-1.94.28-1.36,0-2.46-.3-3.28-.9-.82-.6-1.23-1.51-1.23-2.71,0-.84.14-1.51.41-2.02.27-.51.62-.9,1.06-1.19.44-.29.93-.49,1.49-.6.56-.11,1.12-.19,1.68-.22.93-.05,1.72-.1,2.39-.14.66-.04,1.21-.13,1.64-.26.43-.13.74-.33.94-.6.2-.27.3-.66.3-1.17,0-.4-.04-.82-.1-1.26-.07-.44-.24-.84-.51-1.21-.27-.37-.67-.67-1.19-.9s-1.23-.35-2.12-.35c-1.42,0-2.52.35-3.3,1.04-.79.69-1.22,1.66-1.31,2.92h-.52c.04-.63.17-1.22.39-1.77ZM251.43,25.47h-10.41v-.66l9.44-12.3h-8.73v-.52h9.28v.66l-9.44,12.29h9.86v.52Z"/>
        <polygon class="cls-5" points="745.38 50.86 745.38 36.38 745.81 36.38 745.81 35.38 682.58 35.38 682.58 50.86 683.58 50.86 683.58 36.38 745.81 36.38 745.81 35.38 744.88 35.38 744.38 35.38 744.38 50.86 745.38 50.86"/>
        <path class="cls-5" d="M790.46,18.21c-.17.24-.45.43-.81.56-.37.13-.79.23-1.26.3-.47.07-.98.11-1.53.13-.55.02-1.09.04-1.61.08-.52.04-1.04.1-1.53.2s-.94.27-1.32.52c-.38.25-.69.6-.92,1.05-.23.45-.34,1.03-.34,1.74,0,.38.07.77.2,1.14.13.38.35.71.67,1,.31.29.72.52,1.22.71s1.11.27,1.85.27c.87,0,1.65-.15,2.33-.45.68-.3,1.25-.69,1.72-1.17s.81-1.04,1.05-1.67c.24-.63.35-1.28.35-1.94v-2.49h-.05ZM781.83,15.05c.23-.55.55-1.03.98-1.43.43-.4.95-.72,1.57-.94.62-.23,1.35-.34,2.19-.34.59,0,1.16.06,1.69.18.53.12,1,.34,1.4.64.4.31.72.7.97,1.19.24.49.38,1.1.39,1.83v8.57c0,.26.05.45.16.58.1.12.24.21.42.25.17.04.36.06.56.05.2,0,.39-.02.56-.04v.52h-.79c-.38,0-.72-.09-1.01-.28-.29-.18-.43-.53-.43-1.04v-1.76h-.05c-.14.44-.36.86-.67,1.26-.31.4-.69.76-1.15,1.08-.46.31-.99.56-1.59.75-.59.18-1.24.28-1.94.28-1.36,0-2.46-.3-3.28-.9-.82-.6-1.23-1.51-1.23-2.71,0-.84.14-1.51.41-2.02.27-.51.62-.9,1.06-1.19.44-.29.93-.49,1.49-.6.56-.11,1.12-.19,1.68-.22.93-.05,1.72-.1,2.39-.14.66-.04,1.21-.13,1.64-.26.43-.13.74-.33.94-.6.2-.27.3-.66.3-1.17,0-.4-.04-.82-.1-1.26-.07-.44-.24-.84-.51-1.21-.27-.37-.67-.67-1.19-.9s-1.23-.35-2.12-.35c-1.42,0-2.52.35-3.3,1.04-.79.69-1.22,1.66-1.31,2.92h-.52c.04-.63.17-1.22.39-1.77ZM770.35,26.13h-.52V7.41h.52v12.98l9.31-7.73h.76l-6.19,5.14,6.63,8.34h-.71l-6.32-7.97-3.49,2.88v5.09ZM759.18,7.33h-.52l2.96,3.64h.39l2.96-3.64h-.52l-2.6,3.22-2.67-3.22ZM767.02,23.57c-.3.6-.69,1.11-1.17,1.53-.48.42-1.04.74-1.68.97-.64.23-1.34.34-2.11.34-.96,0-1.81-.18-2.56-.54-.74-.36-1.37-.84-1.87-1.46-.51-.61-.89-1.32-1.15-2.14-.26-.81-.39-1.68-.39-2.61,0-.98.13-1.91.38-2.79.25-.88.64-1.66,1.15-2.33.52-.67,1.17-1.21,1.97-1.61.79-.4,1.73-.6,2.79-.6.63,0,1.23.1,1.81.29.58.19,1.09.47,1.55.84.45.37.83.83,1.14,1.38.31.55.5,1.18.59,1.9h-.52c-.1-.66-.3-1.24-.58-1.72-.28-.48-.62-.88-1.02-1.21-.4-.32-.86-.56-1.36-.72-.51-.16-1.04-.24-1.6-.24-1.07,0-1.97.21-2.71.62-.74.41-1.34.94-1.78,1.6s-.77,1.39-.97,2.2c-.2.81-.3,1.61-.3,2.4s.12,1.61.35,2.36c.24.75.58,1.42,1.04,1.99.45.58,1.02,1.04,1.7,1.38.68.34,1.47.51,2.36.51.66,0,1.28-.1,1.86-.3.58-.2,1.09-.49,1.53-.88.45-.38.81-.84,1.09-1.38s.45-1.14.5-1.82h.52c-.07.75-.25,1.43-.55,2.03ZM753.1,18.21c-.17.24-.45.43-.81.56-.37.13-.79.23-1.26.3-.47.07-.98.11-1.53.13-.55.02-1.09.04-1.61.08-.52.04-1.04.1-1.53.2s-.94.27-1.32.52c-.38.25-.69.6-.92,1.05-.23.45-.34,1.03-.34,1.74,0,.38.07.77.2,1.14.13.38.35.71.67,1,.31.29.72.52,1.22.71s1.11.27,1.85.27c.87,0,1.65-.15,2.33-.45.68-.3,1.25-.69,1.72-1.17s.81-1.04,1.05-1.67c.24-.63.35-1.28.35-1.94v-2.49h-.05ZM744.48,15.05c.23-.55.55-1.03.98-1.43.43-.4.95-.72,1.57-.94.62-.23,1.35-.34,2.19-.34.59,0,1.16.06,1.69.18.53.12,1,.34,1.4.64.4.31.72.7.97,1.19.24.49.38,1.1.39,1.83v8.57c0,.26.05.45.16.58.1.12.24.21.42.25.17.04.36.06.56.05.2,0,.39-.02.56-.04v.52h-.79c-.38,0-.72-.09-1.01-.28-.29-.18-.43-.53-.43-1.04v-1.76h-.05c-.14.44-.36.86-.67,1.26-.31.4-.69.76-1.15,1.08-.46.31-.99.56-1.59.75-.59.18-1.24.28-1.94.28-1.36,0-2.46-.3-3.28-.9-.82-.6-1.23-1.51-1.23-2.71,0-.84.14-1.51.41-2.02.27-.51.62-.9,1.06-1.19.44-.29.93-.49,1.49-.6.56-.11,1.12-.19,1.68-.22.93-.05,1.72-.1,2.39-.14.66-.04,1.21-.13,1.64-.26.43-.13.74-.33.94-.6.2-.27.3-.66.3-1.17,0-.4-.04-.82-.1-1.26-.07-.44-.24-.84-.51-1.21-.27-.37-.67-.67-1.19-.9s-1.23-.35-2.12-.35c-1.42,0-2.52.35-3.3,1.04-.79.69-1.22,1.66-1.31,2.92h-.52c.04-.63.17-1.22.39-1.77ZM731.53,12.65v3.33h.05c.12-.52.32-1,.59-1.44.27-.44.61-.82,1.02-1.15.41-.33.89-.59,1.43-.77.54-.18,1.14-.28,1.81-.28.7,0,1.34.1,1.93.31.59.21,1.09.52,1.52.93.43.41.76.92,1,1.52s.35,1.3.35,2.08v8.94h-.52v-8.86c0-.79-.11-1.46-.34-2.01-.23-.55-.54-1-.93-1.36-.39-.36-.85-.62-1.36-.79-.52-.17-1.06-.25-1.64-.25-.8,0-1.51.15-2.12.46-.61.31-1.12.72-1.53,1.23-.41.52-.72,1.11-.93,1.8-.21.68-.31,1.4-.31,2.15v7.63h-.52v-13.47h.52ZM729.43,26.13h-10.41v-.66l9.44-12.3h-8.73v-.52h9.28v.66l-9.44,12.29h9.86v.52ZM709.43,18.21c-.17.24-.45.43-.81.56-.37.13-.79.23-1.26.3-.47.07-.98.11-1.53.13-.55.02-1.09.04-1.61.08-.52.04-1.04.1-1.53.2s-.94.27-1.32.52c-.38.25-.69.6-.92,1.05-.23.45-.34,1.03-.34,1.74,0,.38.07.77.2,1.14.13.38.35.71.67,1,.31.29.72.52,1.22.71s1.11.27,1.85.27c.87,0,1.65-.15,2.33-.45.68-.3,1.25-.69,1.72-1.17s.81-1.04,1.05-1.67c.24-.63.35-1.28.35-1.94v-2.49h-.05ZM700.8,15.05c.23-.55.55-1.03.98-1.43.43-.4.95-.72,1.57-.94.62-.23,1.35-.34,2.19-.34.59,0,1.16.06,1.69.18.53.12,1,.34,1.4.64.4.31.72.7.97,1.19.24.49.38,1.1.39,1.83v8.57c0,.26.05.45.16.58.1.12.24.21.42.25.17.04.36.06.56.05.2,0,.39-.02.56-.04v.52h-.79c-.38,0-.72-.09-1.01-.28-.29-.18-.43-.53-.43-1.04v-1.76h-.05c-.14.44-.36.86-.67,1.26-.31.4-.69.76-1.15,1.08-.46.31-.99.56-1.59.75-.59.18-1.24.28-1.94.28-1.36,0-2.46-.3-3.28-.9-.82-.6-1.23-1.51-1.23-2.71,0-.84.14-1.51.41-2.02.27-.51.62-.9,1.06-1.19.44-.29.93-.49,1.49-.6.56-.11,1.12-.19,1.68-.22.93-.05,1.72-.1,2.39-.14.66-.04,1.21-.13,1.64-.26.43-.13.74-.33.94-.6.2-.27.3-.66.3-1.17,0-.4-.04-.82-.1-1.26-.07-.44-.24-.84-.51-1.21-.27-.37-.67-.67-1.19-.9s-1.23-.35-2.12-.35c-1.42,0-2.52.35-3.3,1.04-.79.69-1.22,1.66-1.31,2.92h-.52c.04-.63.17-1.22.39-1.77ZM687.85,12.65v3.33h.05c.12-.52.32-1,.59-1.44.27-.44.61-.82,1.02-1.15.41-.33.89-.59,1.43-.77.54-.18,1.14-.28,1.81-.28.7,0,1.34.1,1.93.31.59.21,1.09.52,1.52.93.43.41.76.92,1,1.52s.35,1.3.35,2.08v8.94h-.52v-8.86c0-.79-.11-1.46-.34-2.01-.23-.55-.54-1-.93-1.36-.39-.36-.85-.62-1.36-.79-.52-.17-1.06-.25-1.64-.25-.8,0-1.51.15-2.12.46-.61.31-1.12.72-1.53,1.23-.41.52-.72,1.11-.93,1.8-.21.68-.31,1.4-.31,2.15v7.63h-.52v-13.47h.52ZM676.68,7.33h-.52l2.96,3.64h.39l2.96-3.64h-.52l-2.6,3.22-2.67-3.22ZM684.52,23.57c-.3.6-.69,1.11-1.17,1.53-.48.42-1.04.74-1.68.97-.64.23-1.34.34-2.11.34-.96,0-1.81-.18-2.56-.54-.74-.36-1.37-.84-1.87-1.46-.51-.61-.89-1.32-1.15-2.14-.26-.81-.39-1.68-.39-2.61,0-.98.13-1.91.38-2.79.25-.88.64-1.66,1.15-2.33.52-.67,1.17-1.21,1.97-1.61.79-.4,1.73-.6,2.79-.6.63,0,1.23.1,1.81.29.58.19,1.09.47,1.55.84.45.37.83.83,1.14,1.38.31.55.5,1.18.59,1.9h-.52c-.1-.66-.3-1.24-.58-1.72-.28-.48-.62-.88-1.02-1.21-.4-.32-.86-.56-1.36-.72-.51-.16-1.04-.24-1.6-.24-1.07,0-1.97.21-2.71.62-.74.41-1.34.94-1.78,1.6s-.77,1.39-.97,2.2c-.2.81-.3,1.61-.3,2.4s.12,1.61.35,2.36c.24.75.58,1.42,1.04,1.99.45.58,1.02,1.04,1.7,1.38.68.34,1.47.51,2.36.51.66,0,1.28-.1,1.86-.3.58-.2,1.09-.49,1.53-.88.45-.38.81-.84,1.09-1.38s.45-1.14.5-1.82h.52c-.07.75-.25,1.43-.55,2.03ZM661.64,12.65v3.33h.05c.12-.52.32-1,.59-1.44.27-.44.61-.82,1.02-1.15.41-.33.89-.59,1.43-.77.54-.18,1.14-.28,1.81-.28.7,0,1.34.1,1.93.31.59.21,1.09.52,1.52.93.43.41.76.92,1,1.52s.35,1.3.35,2.08v8.94h-.52v-8.86c0-.79-.11-1.46-.34-2.01-.23-.55-.54-1-.93-1.36-.39-.36-.85-.62-1.36-.79-.52-.17-1.06-.25-1.64-.25-.8,0-1.51.15-2.12.46-.61.31-1.12.72-1.53,1.23-.41.52-.72,1.11-.93,1.8-.21.68-.31,1.4-.31,2.15v7.63h-.52v-13.47h.52ZM647.19,16.73c.26-.85.65-1.59,1.17-2.24.52-.65,1.15-1.17,1.9-1.56.75-.39,1.63-.59,2.62-.59s1.84.2,2.6.59c.75.39,1.39.91,1.9,1.56.52.65.9,1.39,1.17,2.24.26.85.39,1.73.39,2.66s-.13,1.81-.39,2.66c-.26.85-.65,1.6-1.17,2.24-.52.65-1.15,1.16-1.9,1.55-.75.38-1.62.58-2.62.58s-1.84-.19-2.6-.58c-.75-.38-1.39-.9-1.9-1.55-.52-.65-.9-1.39-1.17-2.24-.26-.85-.39-1.73-.39-2.66s.13-1.81.39-2.66ZM647.68,21.85c.24.79.59,1.48,1.06,2.08.47.6,1.05,1.08,1.74,1.44.69.36,1.49.54,2.4.54s1.68-.18,2.37-.54c.69-.36,1.27-.84,1.74-1.44.47-.6.83-1.3,1.06-2.08.24-.79.35-1.61.35-2.46s-.12-1.65-.35-2.44c-.24-.79-.59-1.48-1.06-2.08-.47-.6-1.05-1.09-1.74-1.45-.69-.37-1.48-.55-2.37-.55s-1.71.18-2.4.55c-.69.37-1.27.85-1.74,1.45-.47.6-.83,1.3-1.06,2.08-.24.79-.35,1.6-.35,2.44s.12,1.68.35,2.46ZM636.39,26.13h-.52V7.41h.52v12.98l9.31-7.73h.76l-6.19,5.14,6.63,8.34h-.71l-6.32-7.97-3.49,2.88v5.09Z"/>
      </g>
    </g>
  </g>
</svg>